<svg id="Capa_1" data-name="Capa 1" xmlns="http://www.w3.org/2000/svg" viewBox="0 0 1080 674"><defs><style>.cls-1{fill:#1b1464;}</style></defs><title>Logo-helppeople-2021-SVG</title><path class="cls-1" d="M769.44348,138.89667a147.06237,147.06237,0,0,0-19.14234-16.14186l-.01373-.029a144.265,144.265,0,0,0-83.61389-26.42163c-2.55412,0-5.09179.09408-7.62118.22286,0,0-.624.00879-.9371.029-1.6545.09693-3.2902.27835-4.93432.42816-.56387.05827-1.13615.08784-1.7.15235a144.79744,144.79744,0,0,0-50.59732,14.82366A182.27193,182.27193,0,0,0,565.09119,68.825q-4.76235-4.20761-9.77856-8.053l.04688-.06068a182.09245,182.09245,0,0,0-269.90185,56.495
39l.00705.00383A181.94,181.94,0,0,0,421.30085,385.38633l-.01287.08994a184.71254,184.71254,0,0,0,23.41591,1.49275H666.68874A145.3171,145.3171,0,0,0,769.44348,138.89667ZM666.68874,342.95489l-221.98485-.00006a139.16268,139.16268,0,0,1-17.138-1.06007l.01261-.08839a137.86581,137.86581,0,0,1-103.40842-203.5251l-.0068-.00371A137.84578,137.84578,0,0,1,528.405,95.51019l-.04762.06142a138.50393,138.50393,0,0,1,36.9038,42.79861A148.041,148.041,0,0,0,537.942,175.304l.11209.05778a21.62062,21.62062,0,0,0-2.45689,9.86683,21.78519,21.78519,0,0,0,41.18492,9.97564l.11407.05882a103.19909,103.19909,0,0,1,64.24553-51.68868c.12446-.02957,4.96327-1.13121,7.28531-1.58244a101.9946,101.9946,0,0,1,18.24654-1.67306,100.80292,100.80292,0,0,1,58.78472,18.82656l.01484.02894a101.28615,101.28615,0,0,1-58.78434,183.78054Z"/><path class="cls-1" d="M71.86866,479.2349a44.804,44.804,0,0,0-21.936,5.81674q-10.54291,5.81795-15.63366,14.54309h-.9689l.9689-16.48361v-43.6274a11.14953,11.14953,0,1,0-22.299,0V590.73a11.14953,11.14953,0,1,0,22.29905,0V537.16187a39.98316,39.98316,0,0,1,9.33247-26.29675q9.32652-11.27163,22.905-11.27039,28.35758,0,28.35875,31.99331V590.73a11.14959,11.14959,0,1,0,22.29918,0V527.22607q0-23.02526-11.7562-35.50885Q93.67912,479.23487,71.86866,479.2349Z"/><path class="cls-1" d="M184.69306,473.54026c-35.22382,0-53.0834,18.02232-53.0834,53.56773v23.77609c0,36.54578,18.10081,53.56766,56.96543,53.56766,16.43654,0,30.88727-3.64074,36.211-5.55738,4.91031-1.73158,7.893-3.26305,7.893-9.91812v-1.45662c0-2.59359-.33105-5.80425-2.91338-7.6312-2.83483-2.00455-6.369-.7573-7.46469-.36835a118.54608,118.54608,0,0,1-33.96915,5.14041c-26.7306,0-36.2036-8.39406-36.2036-32.07854v-4.66172h73.80959c6.48873,0,9.41882-2.67585,10.11456-9.23368a134.64219,134.64219,0,0,0,.75167-14.49187C236.80409,491.52893,218.29553,473.54026,184.69306,473.54026Zm32.07662,54.71211a.60578.60578,0,0,1-.60581.60587H152.7342a.60589.60589,0,0,1-.60593-.60587v-5.26944c0-20.84218,9.96858-30.13753,32.32169-30.13753,22.05015,0,32.31972,9.57586,32.31972,30.13753Z"/><path class="cls-1" d="M284.8928,583.4488h-2.9114c-3.24047,0-9.273,0-9.273-15.339V435.03107A10.25832,10.25832,0,0,0,262.45,424.77269h-.00173a10.25832,10.25832,0,0,0-10.25844,10.25838V569.56645c0,21.39943,10.50512,33.67175,28.82118,33.67175a24.95,24.95,0,0,0,4.30265-.26554c6.38395-.70874,8.98868-3.56781,8.98868-9.87135v-.97237C294.30234,584.12005,289.44608,583.4488,284.8928,583.4488Z"/><path class="cls-1" d="M355.97618,473.54026c-36.51028,0-55.02255,17.942-55.02255,53.32464V640.5338a10.25844,10.25844,0,0,0,20.51687,0V594.30161a.58662.58662,0,0,1,.98635-.437c7.94889,6.98185,19.53845,10.53332,34.63124,10.58646,29.9373.10546,54.15362-24.47567,54.15362-54.4131V526.8649C411.24171,490.98294,393.16341,473.54026,355.97618,473.54026Zm34.50568,77.34382c0,21.39188-5.64713,33.7764-34.50568,33.7764S321.4705,572.276,321.4705,550.88408V527.108c0-21.3938,5.64714-33.77833,34.50568-33.77833,29.00626,0,34.50568,11.87218,34.50568,33.77833Z"/><path class="cls-1" d="M482.37742,473.54026c-36.51028,0-55.02255,17.942-55.02255,53.32464V640.5338a10.2584,10.2584,0,0,0,10.25843,10.25837h.00186A10.2584,10.2584,0,0,0,447.8736,640.5338V594.30167a.58659.58659,0,0,1,.98634-.43695c7.94889,6.98191,19.537,10.53333,34.63,10.5864,29.9378.10528,54.15485-24.47524,54.15485-54.4131V526.8649C537.6448,490.98294,519.5665,473.54026,482.37742,473.54026Zm34.50568,77.34382c0,21.39188-5.64528,33.7764-34.50568,33.7764-28.85669,0-34.50382-12.38452-34.50382-33.7764V527.108c0-21.3938,5.64713-33.77833,34.50382-33.77833,29.00613,0,34.50568,11.87218,34.50568,33.77833Z"/><path class="cls-1" d="M602.47128,473.54026c-35.22183,0-53.08141,18.02232-53.08141,53.56773v23.77609c0,36.54578,18.10081,53.56766,56.96345,53.56766,16.43666,0,30.89111-3.64074,36.213-5.55738,4.91032-1.73158,7.89285-3.26305,7.89285-9.91812v-1.45662c0-2.59359-.33092-5.80425-2.91325-7.6312-2.835-2.00455-6.36911-.7573-7.46481-.36835a118.54514,118.54514,0,0,1-33.969,5.14041c-26.7306,0-36.2036-8.39406-36.2036-32.07854v-4.66172h73.80959c6.48861,0,9.42079-2.67585,10.11444-9.23368a134.633,134.633,0,0,0,.75179-14.49187C654.5843,491.52893,636.07759,473.54026,602.47128,473.54026Zm32.08046,54.71211a.60586.60586,0,0,1-.60581.60587H570.51441a.60581.60581,0,0,1-.60593-.60587v-5.26944c0-20.84218,9.96858-30.13753,32.32157-30.13753,22.05014,0,32.32169,9.57586,32.32169,30.13753Z"/><path class="cls-1" d="M721.59674,473.54026c-36.51041,0-55.02255,18.02232-55.02255,53.56773v23.77609c0,36.04463,17.998,53.56766,55.02255,53.56766,36.673,0,55.26553-18.02232,55.26553-53.56766V527.108C776.86227,491.06335,758.7857,473.54026,721.59674,473.54026Zm34.50556,77.34382c0,21.39188-5.64516,33.7764-34.50556,33.7764-28.85867,0-34.50382-12.38452-34.50382-33.7764V527.108c0-21.3938,5.64515-33.77833,34.50382-33.77833,28.8604,0,34.50556,12.38453,34.50556,33.77833Z"/><path class="cls-1" d="M848.00157,473.54026c-36.51016,0-55.02244,17.942-55.02244,53.32464V640.5338a10.25838,10.25838,0,0,0,10.25832,10.25837h.00012A10.2584,10.2584,0,0,0,813.496,640.5338V594.30167a.58659.58659,0,0,1,.98634-.43695c7.94889,6.98191,19.537,10.53333,34.63,10.5864,29.93768.10528,54.15485-24.47524,54.15485-54.4131V526.8649C903.26721,490.98294,885.18879,473.54026,848.00157,473.54026Zm34.50382,77.34382c0,21.39188-5.64515,33.7764-34.50382,33.7764-28.85843,0-34.50556-12.38452-34.50556-33.7764V527.108c0-21.3938,5.64713-33.77833,34.50556-33.77833,29.00638,0,34.50382,11.87218,34.50382,33.77833Z"/><path class="cls-1" d="M951.1111,583.4488h-2.91152c-3.24047,0-9.27111,0-9.27111-15.339V435.03107a10.2583,10.2583,0,0,0-10.25831-10.25838h-.002a10.25838,10.25838,0,0,0-10.25832,10.25838V569.56645c0,21.39943,10.50524,33.67175,28.81933,33.67175a24.96084,24.96084,0,0,0,4.30451-.26554c6.38383-.70874,8.98669-3.56781,8.98669-9.87135v-.97237C960.52039,584.12005,955.66426,583.4488,951.1111,583.4488Z"/><path class="cls-1" d="M1015.88724,473.54026c-35.22209,0-53.08167,18.02232-53.08167,53.56773v23.77609c0,36.54578,18.10081,53.56766,56.96345,53.56766,16.43666,0,30.88925-3.64074,36.211-5.55738,4.91229-1.73158,7.895-3.26305,7.895-9.91812v-1.45662c0-2.59359-.33105-5.80425-2.91338-7.6312-2.8347-2.00455-6.36886-.7573-7.46469-.36835a118.54522,118.54522,0,0,1-33.96914,5.14041c-26.73036,0-36.20361-8.39406-36.20361-32.07854v-4.66172h73.80959c6.48886,0,9.41882-2.67585,10.11457-9.23368A134.6106,134.6106,0,0,0,1068,524.19467C1068,491.52893,1049.49144,473.54026,1015.88724,473.54026Zm32.07835,54.71211a.60581.60581,0,0,1-.60593.60587H983.93011a.60581.60581,0,0,1-.60593-.60587v-5.26944c0-20.84218,9.96859-30.13753,32.32157-30.13753,22.05015,0,32.31984,9.57586,32.31984,30.13753Z"/></svg>
